<svg xmlns="http://www.w3.org/2000/svg" viewBox="0 0 66 52"><defs><style>.\31 4bd3889-df78-445a-be2f-c0eafc8f0a1a{font-size:6.76px;fill:#231815;font-family:Verdana, Verdana;}.\33 883221f-31e1-4b81-83d3-c1008cc39049{fill:#606060;}</style></defs><title>icon_svg</title><g id="35678164-49b2-4de1-b80d-d4ed2d125883" data-name="圖層 1"><text class="14bd3889-df78-445a-be2f-c0eafc8f0a1a" transform="translate(0 -2)">33(w)x26(h)</text><path class="3883221f-31e1-4b81-83d3-c1008cc39049" d="M28.13,22.44c.48.15,1.09-.43,1.36-1.29s.11-1.68-.37-1.83-1.09.42-1.36,1.28S27.65,22.29,28.13,22.44Z"/><path class="3883221f-31e1-4b81-83d3-c1008cc39049" d="M33.52,23.18c.51,0,.91-.74.91-1.64s-.4-1.64-.91-1.64-.91.73-.91,1.64S33,23.18,33.52,23.18Z"/><path class="3883221f-31e1-4b81-83d3-c1008cc39049" d="M38.75,22.48c.49-.1.74-.9.56-1.79s-.72-1.52-1.22-1.42-.74.9-.56,1.79S38.26,22.58,38.75,22.48Z"/><path class="3883221f-31e1-4b81-83d3-c1008cc39049" d="M27.11,36.58c.47.16,1.09-.4,1.38-1.26s.14-1.68-.34-1.84-1.09.4-1.38,1.26S26.63,36.42,27.11,36.58Z"/><path class="3883221f-31e1-4b81-83d3-c1008cc39049" d="M20.45,34.09c.42.27,1.16-.13,1.65-.89s.55-1.59.13-1.87-1.17.13-1.66.89S20,33.81,20.45,34.09Z"/><path class="3883221f-31e1-4b81-83d3-c1008cc39049" d="M33.52,38c.51,0,.91-.73.91-1.64s-.4-1.63-.91-1.63-.91.73-.91,1.63S33,38,33.52,38Z"/><path class="3883221f-31e1-4b81-83d3-c1008cc39049" d="M39.07,33.43c-.49.1-.73.9-.55,1.79s.74,1.51,1.24,1.41.73-.91.55-1.79S39.56,33.32,39.07,33.43Z"/><path class="3883221f-31e1-4b81-83d3-c1008cc39049" d="M46.64,34.06c.41-.29.33-1.12-.18-1.87s-1.27-1.11-1.68-.83-.34,1.12.18,1.87S46.22,34.34,46.64,34.06Z"/></g><g id="268817e0-8e8e-4d36-826f-661020b4b4e6" data-name="thin"><path class="3883221f-31e1-4b81-83d3-c1008cc39049" d="M34.12,50.34a47,47,0,0,1-32-12.56L1.22,37l33-35.58L64.94,38.89l-.9.74A47.21,47.21,0,0,1,34.12,50.34ZM4.54,36.85l.59.51A44.85,44.85,0,0,0,34.12,48,45.13,45.13,0,0,0,61,39l.62-.47-2.27-2.77-.58.43A41.55,41.55,0,0,1,34,44.46a41.27,41.27,0,0,1-26.59-9.7l-.55-.47ZM7.19,34l.6.5A40.89,40.89,0,0,0,34,44a41.13,41.13,0,0,0,24.43-8.11l.63-.47L34.07,5Z"/></g></svg>