<svg xmlns="http://www.w3.org/2000/svg" viewBox="0 0 72 54"><defs><style>.\36 b4f625e-7dbc-4fbc-847c-19a717d21a06{fill:#686868;}</style></defs><title>icon_svg</title><g id="b079b641-7522-4ff5-b3f1-d761654d33da" data-name="thin"><path class="6b4f625e-7dbc-4fbc-847c-19a717d21a06" d="M36,40.45c-12.74,0-27.38-1.71-27.38-15.11,0-7.95,5.38-15.29,14-19.16a8.77,8.77,0,0,0,4-3.13A3.93,3.93,0,0,1,33,2l0,0,0,0a3.92,3.92,0,0,1,5.49,0l0,0,0,0a3.92,3.92,0,0,1,6.05.69,13.34,13.34,0,0,0,4.52,3.4c8.79,3.85,14.24,11.23,14.24,19.25C63.39,38.74,48.76,40.45,36,40.45ZM30.2,3.17a1.64,1.64,0,0,0-1.34.7,10.85,10.85,0,0,1-5.29,4.42c-7.79,3.5-12.65,10-12.65,17.05,0,9,7.51,12.82,25.09,12.82S61.1,34.33,61.1,25.34c0-7.1-4.93-13.67-12.86-17.15A15.14,15.14,0,0,1,42.78,4l-.23-.32a1.64,1.64,0,0,0-2.83.78.31.31,0,0,1-.29.25H37.67a.3.3,0,0,1-.3-.25,1.63,1.63,0,0,0-3.21,0,.3.3,0,0,1-.3.25H32.11a.3.3,0,0,1-.3-.25A1.63,1.63,0,0,0,30.2,3.17Z"/><path class="6b4f625e-7dbc-4fbc-847c-19a717d21a06" d="M25.33,18.34a1.13,1.13,0,0,1-1-.7,1.13,1.13,0,0,1,.61-1.5c5.47-2.29,6.71-8.84,6.72-8.91a1.15,1.15,0,0,1,1.13-.94.68.68,0,0,1,.2,0,1.14,1.14,0,0,1,.93,1.32c0,.32-1.44,7.84-8.09,10.62A1.17,1.17,0,0,1,25.33,18.34Z"/><path class="6b4f625e-7dbc-4fbc-847c-19a717d21a06" d="M44.13,19.61a1.17,1.17,0,0,1-1-1.26c.57-5.56-4.18-9.47-4.38-9.63a1.15,1.15,0,0,1-.19-1.61,1.13,1.13,0,0,1,.9-.43,1.08,1.08,0,0,1,.71.25c.24.19,5.94,4.78,5.24,11.65a1.14,1.14,0,0,1-1.14,1Z"/><path class="6b4f625e-7dbc-4fbc-847c-19a717d21a06" d="M36.12,52.83a6,6,0,0,1-2.41-.5L2.5,38.72a2.78,2.78,0,0,1,.7-5.3L11,32.25h.17a1.16,1.16,0,0,1,1.14,1,1.18,1.18,0,0,1-.21.85,1.2,1.2,0,0,1-.76.45L3.54,35.69a.48.48,0,0,0-.13.92L34.62,50.22a3.7,3.7,0,0,0,3,0l31-13.6a.49.49,0,0,0-.13-.93l-7.75-1.16a1.15,1.15,0,0,1,.17-2.28h.17l7.75,1.16a2.78,2.78,0,0,1,.71,5.3L38.56,52.32A6,6,0,0,1,36.12,52.83Z"/></g></svg>