<svg viewBox="0 0 743.79 1079.87" xmlns="http://www.w3.org/2000/svg"><g fill="#8d947f" transform="translate(-6.14 -113.97)"><path d="m78.85 618.16c-8.9.59-7.29 6.72-13.77 8.36s-5.66-2.43-22.41-17c-11.07 5.65-3.51 13.75-3.51 21.85s-5.65 4-9.71 6.89-3.24 14.16 4.86 15.74 8.11 13.79 23.49 13 14.57-4.88 28.34-16.2 11.33-14.56 7.28-19.44-5.67-13.75-14.57-13.2z"/><path d="m174.39 510c-5.67-9.74-7.29-12.17-10.53-21.87s-8.47-16.2-15.38-16.2c-18.63 0-4 10.53-17 13s-17.33 1.6-16.52-8.95 1.13-15.84.32-19.66-15.38-20.86-23.48-27.32-21.28-19.57-30-10.53c-.95 1-1.89 2.1-2.83 3.24-18 16.59-31.91 42.95-31.91 42.95-.86 9.7-6.53 21.85-12.19 22.68s-10.52 9.66-8.09 17.76 9.93 34.82 9.82 34 9.18-2.61 10.47 3.33v3.17c-.55 3.24 0 5.32 1 6.58 6 20.79 39 23.32 39 23.32 1.28 3.26 5.48 6 13.28 6.79 6.93.71 20.27-5.08 27.56-5.08s24.29 3.2 18.62-12.15-9.81-22.5 6.48-24.28c14.57-1.66 18.87-9.92 22.91.61s4.63 5 13.53.16 10.62-21.88 4.94-31.55z"/><path d="m688.55 932.38c-.54.2-9.15-3.42-12.92-3.15s-7.27 6.19-8.89 6.73-8.61-.26-12.11-1.35c-1.87 6.2 1.63 11.57 5.66 11.84 2.43.17 8.88 3.5 10.22 5.65s11.58 9.43 11.58 9.43a8.58 8.58 0 0 0 2.42-8.08 26.3 26.3 0 0 1 0-10s4.58-11.26 4.04-11.07z"/><path d="m740.57 1101.47c-5.38-2.69-7-3.77-4.85-5.66s3.39-7.53 2-10.22-4.12-2.19-10.57-3.25-13.46 2.44-14 4.33-4 7-2.69 9.95 2.15 7.27 7.54 7.81 12.65 3.76 15.87 7 7 10.77 10.5 11 4-2.1 4-7.65 6.73-11.96-7.8-13.31z"/><path d="m302.89 1089.68c-3.23-2.16-3-5.39-8.34-5.39-3.77.54-5.66 5.39-8.88 5.65s-5.12-.26-7.27 0-2.42 8.34-2.42 8.34 0 3.77 4.84 4 5.92.27 10 4.31 7.27 11 8.34 9.69 2.42-1.62 2.69-6.46-.27-6.2 0-10.77 2.42-3.22 3.23-5.38 1.04-1.84-2.19-3.99z"/><path d="m641.87 470.9c2-5.95 23.46-26.57 27.13-35 .74-1.74 1-11.71 3.85-22.59l-1.38-.09c-4.18-.3-8.38-.67-12.55-.88a61.37 61.37 0 0 0 -8.36 0 41.23 41.23 0 0 0 -10.67 2.55 34.19 34.19 0 0 1 -11 2c-5.7.14-11.44-.06-17.16-.44a48.38 48.38 0 0 1 -15.27-3.65c-3.61-1.5-7.26-2.92-11-4.14-6.31-2.07-12.77-1.3-19.2-.6-1 .1-1.46.9-1.83 1.74-1.32 3-2.59 6.08-4.11 9-2.26 4.47-4.7 8.86-7.06 13.27-1.4 2.58-2.64 5.25-4.25 7.69-2.12 3.17-4.55 6.15-6.82 9.18.06.15.07.25.12.28a4.26 4.26 0 0 0 .83.52c3.89 1.39 5.87 4.16 6.83 7.81a7.58 7.58 0 0 1 -2.4 7.74c-2.17 2.1-5.16 2.13-7.79 1.34-3.22-.95-6.33-.52-9.47-.41a3.32 3.32 0 0 0 -2.87 2.91 3 3 0 0 0 2 3.21 7.51 7.51 0 0 0 2.88.69c2.27 0 4.54-.16 6.8-.34 1.67-.13 3.13 0 4.29 1.37 3.09 3.71 4.52 7.78 2.84 12.37-1.07 3-3.22 4.84-6.73 5.72a8.91 8.91 0 0 0 -6.59 6.5c-.75 2.77-1.4 5.57-2.07 8.37-.84 3.55-1.71 7.09-2.46 10.65a44.3 44.3 0 0 0 -1 6.43c-.3 4.54-.4 9.1-.59 13.65 0 1.1 0 2.2-.12 3.3-.42 4.75-1 9.51-1.33 14.27-.27 3.52-.2 7.07-.59 10.57a19.11 19.11 0 0 1 -1.94 6.93c-2.1 4-5 7.39-7.92 10.84-2.09 2.51-4.21 5-6.31 7.46 1.37 1.51 2.62 2.89 3.85 4.27 5.06 5.58 9.21 11.61 11.16 18.84a11.18 11.18 0 0 1 .19 6c-1.36 5-2.61 10.1-4.1 15.09-1.2 4-2.57 8-6.34 10.65a49.31 49.31 0 0 1 -5.66 3.4c-2.79 1.47-5.24 3.05-5.27 6.5a10.43 10.43 0 0 1 -.91 3.13 5 5 0 0 1 -2.52 2.8 8.34 8.34 0 0 1 -4.16.7c-.92 0-2 0-2.32 1a14.88 14.88 0 0 0 -.64 3c-.37 2.61-.38 5.31-1.13 7.82a7.19 7.19 0 0 1 -6.24 5.16 20.91 20.91 0 0 1 -6.56-.13 11.41 11.41 0 0 0 -9.33 2.27 24.82 24.82 0 0 0 -3.71 3.46 64.25 64.25 0 0 0 -4.7 5.49 8.14 8.14 0 0 0 -1.79 5.28c.13 2.82 0 5.66 0 8.5 0 5.62-6.29 9.51-12 7.47-.12 0-.32 0-.72.12-2.12 2.89-4.29 6-6.58 8.91-3.14 4-1.44 7 1.39 9.14a7.91 7.91 0 0 0 1.7 1l.25.1c4.28 6.28 17.83 15.51 17.83 15.51a29.72 29.72 0 0 0 -15.55 3.58 49.94 49.94 0 0 0 -5.53 3.6c-4 3.06-8 6.12-11.88 9.39-2.66 2.28-4.9 5-7.48 7.33-4.24 3.86-6.94 8.58-9.08 13.64a32.52 32.52 0 0 0 -1.91 4.79c-1.39 5.78-2 11.72-3.91 17.4a2.36 2.36 0 0 0 .15 1.32 8.4 8.4 0 0 1 0 6.58 2.76 2.76 0 0 0 .65 3.47c.69.64 1.09 1.58 1.74 2.26a5 5 0 0 1 .91 5.69 30.61 30.61 0 0 1 -1.32 2.78 26.08 26.08 0 0 0 -2.9 7.17 28.08 28.08 0 0 1 -3.52 9.39 63.12 63.12 0 0 1 -4.13 5.85 5.87 5.87 0 0 0 -1.34 4.13c.18 3 .32 6.11.48 9.16 0 .31.15.61.19.91.3 2 .65 4 .84 6a22.11 22.11 0 0 1 -1.19 8.49 1.94 1.94 0 0 0 .71 2.42c1.95 1.62 3.79 3.38 5.88 4.79a99.37 99.37 0 0 1 15.21 13.06c2.61 2.66 4.19 5.91 3.55 9.68-.39 2.36-1 4.7-1.56 7a87.63 87.63 0 0 1 -11.5 26.21 34.76 34.76 0 0 1 -4.51 5.3 3.44 3.44 0 0 1 -4.1.84 18.18 18.18 0 0 0 -3.17-.81c-2.42-.53-5 .79-5.25 3.11-.3 3-.63 6.07 0 8.91.79 3.33-.26 6.07-1.82 8.69-1.86 3.13-4.21 6-6.32 9-1.1 1.56-2.13 3.17-3.1 4.8a30.1 30.1 0 0 0 -3 8.36 62.38 62.38 0 0 0 -1.57 11.65c-.25 4.86-.17 9.74-.15 14.62a43.35 43.35 0 0 0 4.21 19.23c2.94 6 5.66 12.08 6.76 18.68.59 3.58 1.19 7.14-.2 10.69-.54 1.37-1 2.78-1.54 4.12 6.37 4.33 7.89 5.7 11.28 11.38 4.45 7.49 9.21 14.83 12.47 22.89a3.2 3.2 0 0 0 2.51 2.07c4.35.85 8.23 2.79 12.13 4.63.16.07 12.33 8.74 17.95 12.46 1.21.8 2.5 1.73 3.88 2.7a86.86 86.86 0 0 1 -2.83-11.92c-.82-8.39-.46-16.3-.46-24.7 0-13.51-.88-27.32.82-40.74 1.42-12.86 4.14-25.53 6.64-38.21 2.63-13.33 37.75-78 70.63-87.57 5.89-1.71 8.78-9.07 9.09-15.31.3-5.93 17.1-35.65 20.88-45.75 2.74-7.34 5-30.46 16.88-44.26 4.6-5.33 11.11-9.25 13.52-16.17 1.27-3.64-1-19.14-.3-23.8 2.59-16.64 14-31.67 20.79-47a125.5 125.5 0 0 0 10.08-43.58l.38-5c2.6-28 17.58-139.75 21-146.32 2.35-4.55 5.09-8.22 5.24-13.61a18.76 18.76 0 0 0 -3.69-11.39c-2.67-3.57-.49-7.18.68-11.42 2.57-9.48 5.12-19.03 8.26-28.36z"/><path d="m402.2 797.92c1.35-5.06 2.15-10.25 4.49-15.09a49.09 49.09 0 0 1 9.72-14.17 154.71 154.71 0 0 1 18.94-16.2c2.34-1.64 4.74-3.23 7.2-4.7 4.87-2.89 10.44-3.61 16-4.28v-.48c-2.46-1.5-4.82-3.19-7.4-4.45-3.56-1.73-7.29-3.18-11-4.69a13.09 13.09 0 0 1 -4.8-3.73 6.72 6.72 0 0 1 -1.69-3.08c-.42-2.83-.24-5.65 1.69-8.1.95-1.21 1.89-2.4 2.81-3.62 1.38-1.82 2.76-3.67 4.25-5.63-2.12-1.57-4-3.06-5.94-4.35a18.06 18.06 0 0 0 -4.18-2.06 23.13 23.13 0 0 0 -9.41-1.32c-3.89.35-7.77.89-11.65 1.35a27.2 27.2 0 0 1 -4 .5 6.36 6.36 0 0 0 -5.33 2.53q-6.77 7.71-13.6 15.36c-4 4.45-8.29 8.66-12 13.31-2.6 3.24-6 4.17-9.86 4.77-3.5.55-7.13.81-10.22 2.74-1.32.83-2.69 1.58-3.92 2.5a108.25 108.25 0 0 0 -9.94 7.89c-3.36 3.3-6.26 7.08-9.36 10.66a23.59 23.59 0 0 1 -3.44 3.41c-1.26.92-2.6 1.86-4.55 1.14-1.69-.62-3.59-.75-5.35-1.27a4.7 4.7 0 0 0 -5 1.36c-2.15 2.1-3.18 4.72-4.08 7.4a15 15 0 0 0 -.53 1.78l-1.6 5.34c-.5 1.14-1 2-1.3 3-1.25 3.78-4.34 5.44-8.21 5.89-3.16.39-6.37.39-9.57.52-1.51.08-3.07-.13-4.55.1a28.1 28.1 0 0 1 -14.55-1.68c-2.41-.9-4.67-2.15-5.9-4.5a9 9 0 0 1 -.72-7.88c1.44-3.67 2.71-7.39 4-11.11a6 6 0 0 0 -.65-5.61 56.81 56.81 0 0 0 -14.25-14.77 16.83 16.83 0 0 0 -8.65-3.7 32.41 32.41 0 0 0 -11.27.77c-5.12 1.38-10.24 2.8-15.33 4.31a282.17 282.17 0 0 1 -31.82 8 30 30 0 0 0 -16.42 8.3c-4 3.94-8 7.9-12.15 11.65-3 2.72-6.53 4.43-11.15 3.39a98.06 98.06 0 0 1 -9.62-2.76c-4.14 8.1-9.48 19-9.94 23.19-1 9.62 2.58 17.29 5 26.36 3.94 14.93-6.18 34.6 11.78 43.65 21.69 10.92 26.62 28 30.14 36.12l1.47 4c1.58 5 3.81 13.3 4.55 16.55 1.66 7.47 7.4 13.72 11.66 19.73 2.9 4.13 12.39 16.13 13.23 18.78 1.59 5.07 1.92 6.81-1.45 11.29-4.2 5.61-4.93 12.19-.27 17.85s11.9 5.05 16.37 11.26c5.17 7.18 9.84 13.26 16.93 18.59 5.9 4.45 11 7.29 17.51 9l4.46 1c.15 0 .27.07.43.09 4.13.64 20.67 1.48 25.32 3.18 6.28 2.3 13 3.73 19 6.67a76.4 76.4 0 0 1 21.33 14.52 177 177 0 0 1 17.62 19.77c14.3 18.79 17.49 32.17 20.87 37.49a91 91 0 0 1 8.79 17.83 79.38 79.38 0 0 1 4.86 28.42c-.07 5.44-.56 10.17-.9 14-.33 3.66-.5 6.57 0 8.56a4.06 4.06 0 0 0 1.93 2.68c4.41 2.37 8.39 3.74 13.67 3.41a9.49 9.49 0 0 0 2.18-.49 11.25 11.25 0 0 0 2.88-1.31c5.27-3.47 7.59-10.65 9.41-9.38a18.9 18.9 0 0 0 5.2 8.89 19.82 19.82 0 0 0 12.86 5.51 18 18 0 0 0 13.4-5.1c4.5-4.38 6.26-23.09 10.07-26.9 6.63-6.61 5.8-17.32 2-25-.88-1.81-1.67-3.58-2.39-5.35-4.74-3.22-10.4-7.22-17.39-12.8-.5-.39-.92-.7-1.43-1.11l-2.09-1-11-4.93-1.54-.74-3.56-.89c-3-.51-5.13-1.82-5.66-4.82-.13-.31-.28-.61-.43-.92-.18-.48-.37-1-.54-1.44-.16-.3-.32-.61-.47-.92q-2.48-4.5-4.94-9c-.74-1.41-1.49-2.8-2.24-4.2l-2.33-3.83c-.2-.44-.41-.88-.63-1.31a20.59 20.59 0 0 1 -1.4-1.9 21.86 21.86 0 0 0 -8.44-8.1 17.69 17.69 0 0 1 -3.09-2.86c.07-.48.15-1 .22-1.44s.34-1 .51-1.42c.18-.31.34-.61.52-.91.33-1 .66-1.91 1-2.87.08-1.88.16-3.77.25-5.64-.05-.47-.11-.93-.15-1.41-.55-2.5-1.08-5-1.63-7.52-.15-.48-.31-1-.46-1.44s-.37-.93-.55-1.39-.34-1-.51-1.46l-.46-.92c-.36-.78-.72-1.57-1.09-2.35-.31-.62-.65-1.26-1-1.88-.34-.8-.69-1.6-1-2.4-.16-.32-.3-.62-.46-.93l-.57-1.4a24.32 24.32 0 0 1 -2.76-8.54c0-.46-.11-.94-.16-1.4a81.14 81.14 0 0 1 -.92-8.61c0-5.32.25-10.63.42-16 .06-.46.09-.94.15-1.4.11-1.27.24-2.52.35-3.8.05-.46.11-.93.16-1.39s.22-1 .33-1.44l1.44-5.22c.47-3.77 2.46-6.94 4.57-10.08 2.35-3.5 4.8-7 7.19-10.48 1.17-1.74 2.15-3.57 1.94-5.71a45.34 45.34 0 0 0 -.65-5.59 10.47 10.47 0 0 1 1.93-8.51 8.13 8.13 0 0 1 9.42-3.14c1.17.37 2.37.7 3.66 1.1a10.91 10.91 0 0 0 1.32-1.43 101 101 0 0 0 6.12-9.7c2.15-4.31 3.85-8.83 5.6-13.3a48.16 48.16 0 0 0 2.92-12.57 5.2 5.2 0 0 0 -1.3-4.46l-4.66.75 2.49-3a28.38 28.38 0 0 0 -1.93-2.26c-1-.87-2-1.66-3-2.47-2.36-1.88-4.71-3.79-7.06-5.67-2.68-2.15-5.31-4.34-8.05-6.42a5.48 5.48 0 0 1 -2-6.38c1.28-4.51.72-9 .23-13.53-.36-3.26-.7-6.53-.87-9.81-.17-2.94 1.05-5.47 2.9-7.81a27.88 27.88 0 0 0 5.93-11.55 51.44 51.44 0 0 1 2.36-7.14 25 25 0 0 1 1.86-3.6c.67-1.15.83-2.13-.25-3.19a33.44 33.44 0 0 1 -2.2-2.86 4.83 4.83 0 0 1 -.92-5 9.25 9.25 0 0 0 .09-5.77 7.37 7.37 0 0 1 0-3.27c.42-2.31 1.19-4.54 1.8-6.8z"/><path d="m560.17 409.87c-2.51.8-5.09 1.43-7.5 2.43a10.48 10.48 0 0 1 -9.18-.59c-3.23-1.66-6.34-3.54-9.51-5.3a24.82 24.82 0 0 1 -8.81-8.55 31 31 0 0 0 -10.58-10.52 3.67 3.67 0 0 0 -2.32-.52 32.53 32.53 0 0 0 -5.21 1.56c-5.14 2-9.24 5.53-13.71 8.53-2.37 1.59-4.68 3.28-7.18 4.67-1.45.8-3.33 1.66-4.85 1.46a5.76 5.76 0 0 0 -4.73 1.46c-5.87 4.78-11.66 9.68-17.56 14.43a118.24 118.24 0 0 1 -9.63 7.1c-2.71 1.77-5.73 3.17-8.61 4.71-5.06 2.69-10.09 5.41-15.19 8.05a7.35 7.35 0 0 1 -8.22-.61c-.86-.63-1.64-1.36-2.47-2-2.65-2-5.47-3.52-9.15-3.31a22.24 22.24 0 0 0 -8.43 1.93q-5.82 2.76-11.68 5.39c-5.19 2.31-10.49 4.44-16.17 5.34-3.29.52-6.77 1.18-9.92-1a18.07 18.07 0 0 0 -9.55-3.27 80.4 80.4 0 0 0 -9.56-.18c-3.24.25-6.39 1.15-9.6 1.61a13.22 13.22 0 0 1 -10.41-2.52c-3.16-2.45-6.17-5.12-9.51-7.33-9.17-6.08-18.4-12.08-27.76-17.89-1.88-1.16-3.86-2.19-5.86-3.21-5.25 7.67-18 28.11-16.93 35.47.31 2.14-3.81 5.18-4.93 7.44a50.62 50.62 0 0 0 -4.64 13.58 88.43 88.43 0 0 1 -7.28 22.09l-1.78 3.81c-1.46 2.85-3 5.7-4.71 8.59-16.26 27.86-31.85 56-48.84 83.53-8.25 13.39-16.57 26.06-20.5 31.7l-2.09 2.93c-4.78 6.47-5.54 14.16-8.38 21.36s-5.23 15.37-10.09 21.66c-5.16 6.66-8.81 12.38-6.7 21.24 1.94 8.14 5 15.76 6.13 24.1a44.54 44.54 0 0 1 0 7l-.35 5.69 1.32-.05a3.85 3.85 0 0 1 -1.32.05c-.82 11-2.49 25.45-3.06 31s.14 10.19-2.45 15.4c-.54 1.09-1.53 3-2.74 5.33 1.47.47 2.93.93 4.4 1.38 5 1.53 9.44 1 13.19-3s8.17-7.92 12.26-11.89a26.6 26.6 0 0 1 13.8-7.15c4-.79 8-1.45 11.93-2.34 3.61-.81 7.18-1.8 10.75-2.81 6.64-1.87 13.3-3.73 19.9-5.74a77.94 77.94 0 0 1 15.32-3.11 22.36 22.36 0 0 1 10.88 1.92c4.77 2 8.32 5.49 12 8.79a49.11 49.11 0 0 1 8.42 10.15c1.56 2.47 2.28 5 1 8-1.69 3.86-3.15 7.8-4.52 11.75-1 2.86-.16 5.52 2.49 7a16.86 16.86 0 0 0 9.41 2.45c1.84-.12 3.68-.26 5.53-.34 4.37-.19 8.74-.33 13.12-.54 3.51-.17 5-1.2 6.07-4.3 1.19-3.32 2.28-6.68 3.52-10 1.4-3.78 3.46-7.14 7.28-9.26a6.46 6.46 0 0 1 3-.93c1.45 0 2.87.7 4.32.78 1.68.1 3.27 1.71 4.91.56a29.4 29.4 0 0 0 3.63-3.52 1.43 1.43 0 0 0 .12-.21c2.43-2.8 4.74-5.68 7.28-8.38a75.43 75.43 0 0 1 16.12-12.66 25.1 25.1 0 0 1 6.65-2.61c2.3-.59 4.77-.57 7.1-1a9.38 9.38 0 0 0 5.5-3c2.65-3.13 5.5-6.12 8.24-9.17q7.59-8.46 15.15-16.94s5.37-3.3 12.13-7.07l.47-.06c2.9-.38 5.86-.46 8.69-1.08a26 26 0 0 1 10.65 0 25.54 25.54 0 0 1 13.56 6.46 9.39 9.39 0 0 0 6.84 2.94 8.71 8.71 0 0 0 4.1-1.53c.57-.35.7-1.52.72-2.32.1-2.21 0-4.41.05-6.61a17.08 17.08 0 0 1 3.11-10 54.64 54.64 0 0 1 9.05-9.38 13.94 13.94 0 0 1 9.41-3.45c2.52.06 5 .34 7.53.4 2.21 0 3.06-.59 3.75-2.5a12.54 12.54 0 0 0 .55-2.29c.34-2.39.62-4.79 1-7.18.5-3.42 2-4.61 5.82-5 3.62-.37 3.62-.32 4.29-3.64a3.26 3.26 0 0 1 .07-.7c.78-2.58 1.58-5.15 4.33-6.62a44.54 44.54 0 0 1 4.14-2.41 11.9 11.9 0 0 0 7.34-7.88q2.28-7.8 4.45-15.65a15.09 15.09 0 0 0 -.68-10.6 38.67 38.67 0 0 0 -4.09-7.29c-2.78-3.71-5.91-7.21-8.95-10.74-1.22-1.42-1.44-2.74-.35-4 1.47-1.71 3-3.35 4.44-5.1 3-3.62 6-7.2 8.63-11a13 13 0 0 0 2.51-7.52c0-4.7.32-9.41.53-14.11.12-2 .33-4.07.51-6.09.31-3.59.68-7.17.92-10.76.28-3.91.08-7.88.73-11.73 1-5.69 2.46-11.32 3.9-16.94a70 70 0 0 1 3.33-10.31c1.65-3.78 4.16-7 8.92-7.89 2.52-.46 3-2.43 3.33-4.24a8.27 8.27 0 0 0 -1.22-5.43 1.76 1.76 0 0 0 -1.84-.93c-1.86.06-3.72.12-5.57.05a14.13 14.13 0 0 1 -8.39-2.72 6.57 6.57 0 0 1 -2-7.61c1.88-4.2 6.94-5.83 10.82-4.94a31.53 31.53 0 0 0 8.93 1.06c2.17-.12 3.25-1.07 3.44-3.05a9.09 9.09 0 0 0 0-1.88c-.31-3.24-3.47-7-7.53-6.42l2.1-6.93c2.38-3.4 5-6.59 6.94-10.31 3.12-6.17 6.49-12.23 9.71-18.35 1-2 1.87-4 2.82-6-.22-.09-.38-.19-.51-.32z"/><path d="m727.88 189.66-3.13-2c-2.3-1.43-4.82-2.94-7.9-4.63s-6.37 1.28-9.47 2.5c-4.13 1.63-4.49-7.37-4.65-9.41-.47-6.4-1.09-13.48-7.24-17.09-7.76-4.57-17.07 1.53-24.88 3-5.09 1-5.68.39-9.64-2.87a17.18 17.18 0 0 0 -9.51-3.91c-3.77-.29-8.59 3.61-12 5-2.06.09-6 .05-7.79-.54-2.1-.67-2.42-5.89-4.51-6.6-2.74-.93-1.93-1.65-3.15-4a13 13 0 0 0 -7.83-6.38c-2.18-.63-3.76-.22-5.34-1.89-2.82-3-12.16-11.08-15.05-14-8.86-8.94-15-5.76-21.72-12.22-7-3-8.18 3.19-10.66 3.7-4.07.85-10.95-.67-14.9.7-8.43 2.93-6.93 7.18-12.66 14-4.63 5.38-12.48 12.5-17.72 19.37-2.3 3-7.35 17-9.18 19.58a11.8 11.8 0 0 1 -2.83 2.41l.44.15-5.2 2.35c-.53.21-1 .45-1.57.61-3 .9-9.28 3.83-15.33 2.22s-27.43 9.85-34.88 14.19c-2.52 1.47-48.92 22.45-52.32 24.42-2.19 1.26-4.06 4.73-5.7 8.61l-1.77 4.46c-1.28 3.45-2.39 6.74-3.35 8.69-1.13 2-4.41 7.37-7.24 12 0 .15-.05.3-.09.45 0-.07 0-.19 0-.27-1.7 2.74-3.22 5.19-4 6.43-2.2 3.45-5.94 18.6-8.89 19.9-7.18 3.16-10.83 8.06-11.83 14.89l-.31 5.68c.12 6.17.5 12.37-2.11 18-5 10.75-38.83 38.94-39.82 40.46a15.92 15.92 0 0 0 -6 3c-3.64 2.94-5.63 7-7.56 11.17-3.23 6.94-14.64 29.59-18.76 36 2.84 1.5 5.68 3 8.41 4.63 5.14 3.08 10.14 6.35 15.15 9.62 6.56 4.31 13.18 8.57 19.05 13.73a8.62 8.62 0 0 0 5.06 2.31c3.8.3 7.41-.88 11.14-1.1 2.14-.14 4.26-.7 6.4-.77 1.89-.06 3.81.4 5.72.46a23.23 23.23 0 0 1 10.69 3.31 8.55 8.55 0 0 0 3.53 1 28.67 28.67 0 0 0 11-1.78 197.57 197.57 0 0 0 18.24-7.8 34.14 34.14 0 0 1 8.68-2.92 16.91 16.91 0 0 1 12.35 2.2c1.65 1 3.12 2.34 4.72 3.47 1.06.74 2.08 1.61 3.59.8 2.92-1.53 5.88-3 8.79-4.51 4.71-2.5 9.39-5.05 14.07-7.58 1.07-.58 2.14-1.18 3.14-1.86 6.62-4.48 12.37-9.89 18.54-14.84 2.72-2.19 5.48-4.31 8.33-6.35a5.61 5.61 0 0 1 4.92-1.25 2.21 2.21 0 0 0 2.05-.22c3.38-2.12 6.79-4.2 10.05-6.45 3.58-2.46 6.94-5.18 11-6.92l4.56-2 9.32 1.33 2.87 2a28.76 28.76 0 0 1 8.39 9.23 14.75 14.75 0 0 0 1.47 1.89c3.57 4.13 8.71 6.25 13.34 9 3 1.79 6 2.15 9.16.54.29-.14.65-.15 1-.27a59.46 59.46 0 0 1 25.27-4.45 14.88 14.88 0 0 1 2.48.31 84.49 84.49 0 0 1 15.22 5.45 49.51 49.51 0 0 0 14.63 3.75c5.44.5 10.94.39 16.41.53a10.57 10.57 0 0 0 2.52 0c3.4-.79 6.85-1.51 10.16-2.59a34.51 34.51 0 0 1 10-2c6.56-.09 13.14.2 19.7.54 1.18.06 2.36.17 3.53.26 2.14-6.58 5.35-13.16 10.36-18.18 5.35-4.78 10.6-8.19 9.8-16.37-.31-3.15 2.43-18.54 2.29-23.55-.12-4.7-1.67-21.67-2.36-25.82a14.28 14.28 0 0 0 -4.84-8.52 15.7 15.7 0 0 0 -4.59-2.69q-1.17-4-2.71-7.79c-1.38-3.46.92-7.62.56-11.53-.35-3.71-9.32-15-8.24-31.14 1.85-27.7 16.92-34.43 34.4-45.57 4.06-2.6 9.7-10.13 14.29-11.46 7.65-2.27 24.32-2.87 4.44-16.21z"/></g></svg>