<svg xmlns="http://www.w3.org/2000/svg" viewBox="0 0 68 42"><defs><style>.fd7ca649-50e3-4293-abf3-7efa9933f31e{fill:none;}.\37 4999159-4a58-4956-8242-c79d2b80307d{fill:#606060;}</style></defs><title>1.蔬菜</title><g id="b6dc1876-7f3e-45e6-92f2-3f17e4c6b076" data-name="thin"><path class="fd7ca649-50e3-4293-abf3-7efa9933f31e" d="M43.85,15.41c.06,1.24.84,3.65,5.39,5.93a.68.68,0,0,0,.34.08.83.83,0,0,0,.22,0c9.49-3,12.72-9.75,12.75-9.81,1.09-2.68,1.16-4.75.2-6.19-1.4-2.08-4.7-2.44-6-2.49h0a.74.74,0,0,0-.68.43c-3,6.33-9.74,10.32-11.75,11.38A.75.75,0,0,0,43.85,15.41Z"/><path class="fd7ca649-50e3-4293-abf3-7efa9933f31e" d="M32.86,7.79a.72.72,0,0,0,0,.64.73.73,0,0,0,.48.43,8.61,8.61,0,0,1,4.23,2.58c3.17,3.65,1.76,9,1.7,9.28a22.84,22.84,0,0,1-1.36,3.52.75.75,0,0,0,.17.87l.37.35c.06.06,7.55,7,18,7a23.54,23.54,0,0,0,2.65-.15c.84-.19,4.63-1.23,5.59-4.18a5.78,5.78,0,0,0-.26-3.82,26.07,26.07,0,0,0-3-4.76c-.05-.06-.31-.39-.77-.93l-.54-.6a.77.77,0,0,0-.56-.25.74.74,0,0,0-.48.18,25.51,25.51,0,0,1-9.44,5l-.27.08-.26-.12c-8.12-3.81-6.69-8.56-6.62-8.76l.1-.31.29-.13a32.27,32.27,0,0,0,6.55-4.43.75.75,0,0,0,.25-.6.74.74,0,0,0-.3-.57c-.41-.31-.83-.61-1.24-.9s-1-.66-1.41-.93c-.81-.5-1.66-1-2.52-1.39A14.29,14.29,0,0,0,39.5,4a8.3,8.3,0,0,0-3.43.68A6.73,6.73,0,0,0,32.86,7.79Z"/><path class="fd7ca649-50e3-4293-abf3-7efa9933f31e" d="M15.59,19.74a.77.77,0,0,0,.45.72,3.81,3.81,0,0,0,1.47.27A8.9,8.9,0,0,0,22,19.13a.75.75,0,0,0,.33-.47C23.84,12.38,22,7.14,21,6a.49.49,0,0,0-.13-.12,7.27,7.27,0,0,0-4.13-1.48,5.79,5.79,0,0,0-4,1.73.75.75,0,0,0-.11,1C15.58,11.62,15.68,17.44,15.59,19.74Z"/><path class="fd7ca649-50e3-4293-abf3-7efa9933f31e" d="M37.25,13.64a.74.74,0,0,0-.67-.41l-.18,0a.75.75,0,0,0-.57.75,10.14,10.14,0,0,1-.46,3.28l0,.09c-4.28,9.53-14,12.32-14.4,12.43a19.4,19.4,0,0,1-5.7.91,14,14,0,0,1-8.79-2.79A8.94,8.94,0,0,1,3.83,23.8a.76.76,0,0,0-.73-.56h0a.77.77,0,0,0-.71.62A8.18,8.18,0,0,0,3,28.61a16.53,16.53,0,0,0,13.82,7.72,19,19,0,0,0,4-.44c.56-.13,13.41-3.33,17-15.57A10.6,10.6,0,0,0,37.25,13.64Z"/><path class="fd7ca649-50e3-4293-abf3-7efa9933f31e" d="M15.23,29.23a18,18,0,0,0,5.3-.84c.08,0,9.44-2.77,13.44-11.58.07-.22,1.14-3.6-.57-5.55a4.6,4.6,0,0,0-2.69-1.38A16.38,16.38,0,0,0,29,9.8a25.18,25.18,0,0,0-2.9.18h0c-.07,0-.84.13-.93.14l-.34.07a.76.76,0,0,0-.6.84,22.71,22.71,0,0,1-.58,8.58l-.07.27-.23.15a10.79,10.79,0,0,1-5.85,2.19A4.41,4.41,0,0,1,14.24,21L14,20.76l0-.32a26.77,26.77,0,0,0-.3-6.09.75.75,0,0,0-.38-.53.7.7,0,0,0-.36-.1.8.8,0,0,0-.3.06c-.28.12-.57.24-.84.37-.46.21-.87.41-1.22.59-.68.35-1.37.76-2,1.18s-3.38,2.82-3.56,5.86a6.47,6.47,0,0,0,2.33,5A12.57,12.57,0,0,0,15.23,29.23Z"/><path class="fd7ca649-50e3-4293-abf3-7efa9933f31e" d="M65,31.5a.76.76,0,0,0-.43-.14.72.72,0,0,0-.48.18,11.64,11.64,0,0,1-4.67,2.26l-.1,0a25.45,25.45,0,0,1-2.92.17c-10.51,0-18-6.58-18.85-7.33a.78.78,0,0,0-.5-.19h-.1a.78.78,0,0,0-.53.33,23.25,23.25,0,0,1-3.7,4.3.79.79,0,0,0-.25.58.76.76,0,0,0,.28.56c3.3,2.67,10.14,7.14,18.82,7.14a25.19,25.19,0,0,0,6.27-.8c.62-.19,5.78-1.87,7.43-6.2A.75.75,0,0,0,65,31.5Z"/><path class="74999159-4a58-4956-8242-c79d2b80307d" d="M51.56,41c-9.83,0-17.47-5.52-20.3-7.89a.62.62,0,0,0-.42-.15.63.63,0,0,0-.37.12,28.25,28.25,0,0,1-9.3,4.4,20.49,20.49,0,0,1-4.27.46c-10.12,0-15.18-8.41-15.23-8.49l0-.11a9.42,9.42,0,0,1-.29-7.58C2.61,18.46,5.54,16,7.78,14.59a15.32,15.32,0,0,1,1.74-1c1-.52,1.6-.8,1.67-.83l1.36-.59a.66.66,0,0,0,.37-.8,13.89,13.89,0,0,0-2.18-4.22l-.32-.43a.09.09,0,0,1,0-.11l.3-.45a7.81,7.81,0,0,1,6.06-3.3,8.94,8.94,0,0,1,5.1,1.81,7.22,7.22,0,0,1,1.88,3.54.64.64,0,0,0,.6.46h0A.66.66,0,0,0,25,8.22a15.56,15.56,0,0,1,.86-1.92l.06-.1a11.42,11.42,0,0,1,7.66-5,13.3,13.3,0,0,1,2.12-.16A22.09,22.09,0,0,1,45,3.53a20.54,20.54,0,0,1,2.13,1.16C48.29,5.37,49,5.89,49,5.91c.55.38,1.1.78,1.7,1.23a.68.68,0,0,0,.39.13.64.64,0,0,0,.48-.22A17.53,17.53,0,0,0,54.9,1.84l.18-.43a.09.09,0,0,1,.08-.07l.48,0h.49c1.74,0,6,.31,7.93,3.21,1.27,1.9,1.26,4.48,0,7.66a15,15,0,0,1-2.73,3.88.65.65,0,0,0,0,.87l.61.7a20.61,20.61,0,0,1,4,6.1c1.52,3.27,1.85,6.24,1,8.85C65,38.11,58.52,40,58.25,40.1A26.69,26.69,0,0,1,51.56,41ZM37,26.57a.65.65,0,0,0-.46.29,23.81,23.81,0,0,1-3.72,4.32.63.63,0,0,0-.22.5.68.68,0,0,0,.24.48c3.29,2.66,10.11,7.12,18.76,7.12a25,25,0,0,0,6.25-.8c.58-.18,5.72-1.85,7.36-6.14a.66.66,0,0,0-.23-.76.64.64,0,0,0-.38-.12.67.67,0,0,0-.42.16,11.67,11.67,0,0,1-4.71,2.28l-.1,0a26.2,26.2,0,0,1-2.94.16c-10.56,0-18.09-6.59-18.92-7.34a.63.63,0,0,0-.43-.17v-.1ZM3.33,22a.3.3,0,0,0-.16.08,3.37,3.37,0,0,0-.7,1.76l-.12.09.1,0c-.05.29-.07.51-.07.51a8.51,8.51,0,0,0,.75,4.1,16.45,16.45,0,0,0,13.73,7.66,19.48,19.48,0,0,0,3.95-.43c.54-.13,13.34-3.31,16.91-15.51,0-.14.92-3.73-.56-6.6a.64.64,0,0,0-.58-.36l-.16,0a.68.68,0,0,0-.49.65,10.28,10.28,0,0,1-.46,3.33C31.13,27,21.38,29.8,21,29.91a19.55,19.55,0,0,1-5.73.91A14.21,14.21,0,0,1,6.38,28a9.21,9.21,0,0,1-2.65-4.19c-.18-.7-.35-1.8-.35-1.8ZM39.5,4.13a8.3,8.3,0,0,0-3.39.67,6.66,6.66,0,0,0-3.16,3,.62.62,0,0,0,0,.56.66.66,0,0,0,.42.38,8.68,8.68,0,0,1,4.28,2.6c3.2,3.7,1.78,9.15,1.72,9.38A22,22,0,0,1,38,24.28a.66.66,0,0,0,.15.76l.37.35c.07.07,7.49,7,18,7a22.93,22.93,0,0,0,2.63-.15c.75-.17,4.56-1.18,5.51-4.11a5.66,5.66,0,0,0-.25-3.76,26.64,26.64,0,0,0-3-4.73c-.06-.08-.32-.41-.76-.92l-.54-.6a.66.66,0,0,0-.49-.22.62.62,0,0,0-.41.16,25.76,25.76,0,0,1-9.49,5l-.26.07L49.09,23c-8.19-3.85-6.74-8.68-6.68-8.88l.1-.31.34-.19a32.15,32.15,0,0,0,6.53-4.42.65.65,0,0,0,0-1c-.41-.31-.83-.61-1.24-.9s-1-.66-1.4-.92c-.81-.5-1.66-1-2.52-1.39M13,13.82a.75.75,0,0,0-.26,0l-.84.37c-.46.21-.86.41-1.21.59-.68.35-1.37.76-2,1.17s-3.33,2.77-3.51,5.79a6.38,6.38,0,0,0,2.3,4.94,12.56,12.56,0,0,0,7.75,2.4,18.06,18.06,0,0,0,5.27-.83c.09,0,9.4-2.78,13.37-11.53,0,0,1.17-3.47-.55-5.45A4.5,4.5,0,0,0,30.69,10,15.26,15.26,0,0,0,29,9.9a24.85,24.85,0,0,0-2.88.18c-.1,0-.85.13-.94.14l-.33.07a.65.65,0,0,0-.52.72,22.9,22.9,0,0,1-.58,8.62l-.07.27-.27.22a10.9,10.9,0,0,1-5.91,2.2,4.48,4.48,0,0,1-3.34-1.26L14,20.82v-.39a25.93,25.93,0,0,0-.3-6.07.71.71,0,0,0-.33-.46A.68.68,0,0,0,13,13.82ZM56.67,3a.64.64,0,0,0-.59.37c-3,6.37-9.77,10.36-11.79,11.43a.65.65,0,0,0-.34.61c.06,1.21.83,3.59,5.34,5.84a.59.59,0,0,0,.29.07.63.63,0,0,0,.19,0c9.44-2.94,12.65-9.69,12.68-9.75,1.09-2.64,1.16-4.69.21-6.09C61.29,3.4,58,3.05,56.69,3l0-.1ZM16.77,4.51a5.7,5.7,0,0,0-3.92,1.71.64.64,0,0,0-.1.82c2.93,4.55,3,10.4,2.94,12.7a.67.67,0,0,0,.39.63,3.8,3.8,0,0,0,1.43.26A8.73,8.73,0,0,0,22,19a.66.66,0,0,0,.29-.4C23.73,12.4,22,7.19,21,6.07a1.27,1.27,0,0,0-.12-.1A7.22,7.22,0,0,0,16.77,4.51ZM28.86,8.15a12.51,12.51,0,0,1,1.54.09h0a.66.66,0,0,0,.66-.39,9,9,0,0,1,2.86-3.72,18,18,0,0,1,1.85-.85.33.33,0,0,0-.11-.16,2.36,2.36,0,0,0-1.19-.24A7,7,0,0,0,33.41,3a9.64,9.64,0,0,0-6.09,4.15.73.73,0,0,0,0,.75.67.67,0,0,0,.54.31Z"/></g></svg>