<svg xmlns="http://www.w3.org/2000/svg" viewBox="0 0 52 56"><defs><style>.cc96dafe-50a3-45d1-a0a3-044e2d07ad2c{fill:#686868;}</style></defs><title>icon_svg</title><g id="1be15068-6b32-43cf-ad83-8ed19737c3a3" data-name="thin"><path class="cc96dafe-50a3-45d1-a0a3-044e2d07ad2c" d="M19.66,55.92a.29.29,0,0,1-.29-.3V36.92a.29.29,0,0,1,.29-.29h.73a9.69,9.69,0,0,1,9.43,7.6h0A10,10,0,0,0,38.5,36.3h-3a.68.68,0,0,1-.68-.67.69.69,0,0,1,.68-.68h3.22c0-.23,0-.46,0-.7A10.88,10.88,0,0,0,38.63,33H35.46a.68.68,0,0,1,0-1.36h2.9a10.09,10.09,0,0,0-9.71-7.45H26.19v2.73a.68.68,0,0,1-.68.67.67.67,0,0,1-.67-.67V24.18H22.89v2.73a.68.68,0,0,1-1.35,0V24.18H16.9C1.26,24.18.69,8.36.68,8.2l0-.74A.31.31,0,0,1,1,7.15H3.38a8.1,8.1,0,0,1,8-7.07H32a.68.68,0,1,1,0,1.35H11.4A6.78,6.78,0,0,0,4.75,7.14H29a21.35,21.35,0,0,1,.35,42.7h0a9.59,9.59,0,0,1-9,6.06Zm1.74-2.1h0a7.62,7.62,0,0,0,6.26-5.32,1,1,0,0,1,1-.72,1,1,0,0,1,.3,0,19.37,19.37,0,0,0,16-8.43h0a14.85,14.85,0,0,1-4.36.71A11.1,11.1,0,0,1,39.3,40h0A11.94,11.94,0,0,1,29,46.33h0a1,1,0,0,1-.8-.34,1,1,0,0,1-.29-.6,7.6,7.6,0,0,0-6.54-6.66h0v2.73L25,43.17a.69.69,0,0,1,.34.39.65.65,0,0,1,0,.51.67.67,0,0,1-.61.39.73.73,0,0,1-.29-.07L21.4,43V49l3-1.42a.59.59,0,0,1,.29-.07.68.68,0,0,1,.64.9.69.69,0,0,1-.34.39l-3.57,1.7ZM40.15,38.05h.44a14.52,14.52,0,0,0,5.69-1.35,1,1,0,0,1,.23-.07h0a19.25,19.25,0,0,0-.3-16.87v0c-.83,2.4-2.82,6.73-6.9,8.76h0A12.15,12.15,0,0,1,40.14,38ZM29,22.16a12.07,12.07,0,0,1,9.16,4.65h0c4.82-2.24,6.42-8.7,6.59-9.43h0A19.37,19.37,0,0,0,33.11,9.63h0c.08,2.48-.17,8.65-4.09,12.5ZM2.8,9.2c.36,3,2.45,13,14.1,13h8.68c5.5-3,5.57-10.58,5.47-12.84h0a20,20,0,0,0-2-.11H2.8Z"/><path class="cc96dafe-50a3-45d1-a0a3-044e2d07ad2c" d="M16.73,13.81a1.33,1.33,0,1,1,1.34-1.33A1.34,1.34,0,0,1,16.73,13.81Z"/></g></svg>