<svg id="d680b7ca-cd07-4478-a4e7-6e537ce2bef6" data-name="圖層 1" xmlns="http://www.w3.org/2000/svg" viewBox="0 0 60 54"><defs><style>.dbaf3a69-5665-4c16-aa72-4dc2607827bb{fill:#686868;}</style></defs><title>icon_svg</title><path class="dbaf3a69-5665-4c16-aa72-4dc2607827bb" d="M24.38,44.89c-7.09,2.12-12.63.91-16.49-3.6-7.36-8.61-6.37-26-3.4-32.2A12.44,12.44,0,0,1,11.6,2.47a12.38,12.38,0,0,1,9.59,1.59c3.27,2,8.14,7.27,11.5,13.8.46-.65.93-1.27,1.39-1.83C30.55,9.51,25.71,4.33,22.26,2.27A14.39,14.39,0,0,0,11,.48,14.4,14.4,0,0,0,2.62,8.2C.85,11.9-.07,18.34.28,24.62c.42,7.56,2.56,14,6,18A15,15,0,0,0,18.12,48,23.76,23.76,0,0,0,25,46.88c.68-.2,1.34-.42,2-.66a16.11,16.11,0,0,1-.73-2C25.63,44.49,25,44.7,24.38,44.89Z"/><path class="dbaf3a69-5665-4c16-aa72-4dc2607827bb" d="M55.81,17.59A12.59,12.59,0,0,0,47.57,12a9.13,9.13,0,0,0-1.4-.11,13.21,13.21,0,0,0-8.12,3.07C33,19.06,25.32,33,28.13,43.37c1.08,4,4.23,9,13.14,10.33a22.81,22.81,0,0,0,3.59.29C50.6,54,55,51.48,57.51,46.74,62.1,38.15,59.68,23.36,55.81,17.59Zm-.13,28.17c-2.63,4.92-7.4,6.91-14.09,5.89-6.27-1-10.12-3.93-11.45-8.82-2.55-9.41,4.62-22.56,9.22-26.3a11.1,11.1,0,0,1,6.81-2.59,7.59,7.59,0,0,1,1.09.07,10.59,10.59,0,0,1,6.82,4.74C57.59,24,59.85,37.94,55.68,45.76Z"/><path class="dbaf3a69-5665-4c16-aa72-4dc2607827bb" d="M10.66,8.25a10.88,10.88,0,0,0-2.32,3.24,20.83,20.83,0,0,0-1.52,5.69A.69.69,0,0,0,7.4,18h.11a.7.7,0,0,0,.68-.6,19.85,19.85,0,0,1,1.4-5.29,9.6,9.6,0,0,1,2-2.84.72.72,0,0,0,0-1A.69.69,0,0,0,10.66,8.25Z"/><path class="dbaf3a69-5665-4c16-aa72-4dc2607827bb" d="M43.55,19a9,9,0,0,0-1.45,1,24.18,24.18,0,0,0-5.31,7.46.7.7,0,0,0,.31.93.67.67,0,0,0,.31.07.7.7,0,0,0,.62-.38,23,23,0,0,1,4.94-7,8.36,8.36,0,0,1,1.25-.85A.69.69,0,0,0,43.55,19Z"/></svg>