<svg id="e97e0abc-862b-4215-918d-3db8048a2f4a" data-name="圖層 1" xmlns="http://www.w3.org/2000/svg" viewBox="0 0 56 62"><defs><style>.\31 377b295-40ce-448e-a4de-dee884d12448{fill:#686868;}</style></defs><title>icon_svg</title><path class="1377b295-40ce-448e-a4de-dee884d12448" d="M45.71,21.87a1.89,1.89,0,1,0,1.89,1.89A1.89,1.89,0,0,0,45.71,21.87Z"/><path class="1377b295-40ce-448e-a4de-dee884d12448" d="M43.82,30.78a1.89,1.89,0,1,0,1.89,1.89A1.89,1.89,0,0,0,43.82,30.78Z"/><path class="1377b295-40ce-448e-a4de-dee884d12448" d="M36,26.47a1.9,1.9,0,1,0,1.89,1.9A1.9,1.9,0,0,0,36,26.47Z"/><path class="1377b295-40ce-448e-a4de-dee884d12448" d="M14.35,49.36c-2.14,2.48-2.68,3-2.7,3.07l-.05,0c-.38.45-1.27,1.48-.31,2.3a2.5,2.5,0,0,1,.8,2.47,2.83,2.83,0,0,1-2.25,2A2.71,2.71,0,0,1,7.2,57.1a2.38,2.38,0,0,0-2.3-2,2.71,2.71,0,0,1-2.56-2.31A2.84,2.84,0,0,1,4,50.32a2.49,2.49,0,0,1,2.56.42c1,.82,1.85-.22,2.23-.66l2.43-2.82a17.4,17.4,0,0,1-1.71-1.61L7.2,48.35a4.8,4.8,0,0,0-4.06-.2A5.15,5.15,0,0,0,0,52.59a2.63,2.63,0,0,0,.06.84,5.11,5.11,0,0,0,4.82,4.06,5.08,5.08,0,0,0,4.73,4.13h.23a2.47,2.47,0,0,0,.6-.08,5.16,5.16,0,0,0,3.92-3.76,4.83,4.83,0,0,0-.81-4c.36-.39,1.21-1.35,3-3.43A21.12,21.12,0,0,1,14.35,49.36Z"/><path class="1377b295-40ce-448e-a4de-dee884d12448" d="M33.72.39C21.44.39,11.45,10,11.45,21.76c0,.35,0,.7,0,1.06a8.22,8.22,0,0,0,.08,1.05c0,.33.08.66.13,1A13.72,13.72,0,0,0,7.4,34.7c0,8.15,7.56,14.78,16.86,14.78a17.62,17.62,0,0,0,14.23-6.85C48.66,40.51,56,31.8,56,21.76,56,10,46,.39,33.72.39Zm3.86,40-.48.09-.27.41a15.2,15.2,0,0,1-12.57,6.22c-8,0-14.52-5.58-14.52-12.44a11.22,11.22,0,0,1,2.76-7.28,15.14,15.14,0,0,0,4.61,6.17,1.17,1.17,0,0,0,1.46-1.82,12.67,12.67,0,0,1-4.66-8,17.07,17.07,0,0,1-.12-2c0-10.5,8.94-19,19.93-19s19.94,8.53,19.94,19C53.66,30.83,46.9,38.68,37.58,40.42Z"/></svg>